<svg xmlns="http://www.w3.org/2000/svg" xmlns:xlink="http://www.w3.org/1999/xlink" width="20" zoomAndPan="magnify" viewBox="0 0 375 374.999991" height="20" preserveAspectRatio="xMidYMid meet" version="1.0"><defs><g/></defs><rect x="-37.5" width="20" fill="#647c04" y="-37.499999" height="449.999989" fill-opacity="1"/><rect x="-37.5" width="20" fill="#647c04" y="-37.499999" height="449.999989" fill-opacity="1"/><g fill="#647c04" fill-opacity="1"><g transform="translate(0.991984, 260.414403)"><g><path d="M 75.148438 9.027344 C 79.542969 8.050781 83.445312 5.855469 87.105469 3.171875 C 91.496094 0 95.402344 -3.902344 99.0625 -8.050781 C 106.378906 -16.589844 112.480469 -25.617188 118.09375 -35.378906 C 121.75 -41.964844 124.921875 -48.796875 126.632812 -56.117188 C 127.121094 -57.824219 127.851562 -59.046875 129.558594 -59.535156 L 131.023438 -60.265625 C 141.757812 -65.390625 152.984375 -69.539062 164.207031 -73.683594 C 171.039062 -76.125 177.871094 -78.078125 184.945312 -80.027344 C 185.921875 -80.273438 187.140625 -80.027344 187.875 -81.25 C 185.675781 -83.6875 185.675781 -83.6875 182.75 -82.957031 C 177.382812 -81.738281 172.015625 -80.273438 166.890625 -78.320312 C 154.691406 -74.417969 142.980469 -69.292969 131.265625 -64.414062 L 129.804688 -63.683594 C 128.09375 -62.949219 127.851562 -63.195312 127.609375 -64.902344 L 127.609375 -66.855469 C 127.363281 -71.488281 125.410156 -75.636719 121.996094 -78.808594 C 118.09375 -82.46875 113.457031 -85.152344 108.332031 -86.128906 C 104.429688 -86.859375 100.523438 -86.859375 96.621094 -86.617188 C 91.742188 -86.128906 87.105469 -85.152344 82.226562 -83.933594 C 70.027344 -80.761719 57.824219 -77.34375 45.625 -74.171875 C 38.0625 -71.976562 30.253906 -70.027344 22.203125 -69.292969 C 18.300781 -68.804688 14.152344 -68.804688 10.003906 -69.539062 C 8.296875 -69.78125 7.320312 -70.757812 6.832031 -72.222656 C 6.101562 -74.660156 5.613281 -77.34375 6.101562 -80.027344 C 6.832031 -84.421875 8.296875 -88.570312 10.003906 -92.71875 C 15.859375 -105.160156 22.933594 -116.871094 31.230469 -127.851562 C 40.503906 -140.296875 50.996094 -151.273438 63.683594 -160.058594 C 76.125 -168.84375 89.789062 -174.453125 104.917969 -176.648438 C 108.578125 -177.136719 112.234375 -177.136719 115.894531 -176.160156 C 118.335938 -175.675781 120.53125 -174.453125 121.75 -172.257812 C 122.484375 -171.527344 122.972656 -170.550781 123.460938 -169.816406 C 126.144531 -164.449219 127.363281 -159.082031 126.875 -152.984375 C 126.386719 -149.324219 125.898438 -145.90625 125.167969 -142.246094 C 122.726562 -131.511719 118.335938 -121.507812 110.773438 -113.457031 C 110.527344 -113.210938 110.527344 -112.96875 110.285156 -112.96875 C 110.039062 -112.480469 110.039062 -112.234375 110.527344 -111.992188 C 110.773438 -111.992188 111.015625 -111.75 111.261719 -111.992188 C 112.722656 -112.722656 113.945312 -113.945312 114.921875 -115.164062 C 118.578125 -119.3125 121.507812 -123.949219 123.703125 -129.070312 C 126.632812 -135.660156 128.339844 -142.492188 129.558594 -149.8125 C 130.535156 -155.179688 130.046875 -160.789062 127.851562 -166.160156 C 124.921875 -173.476562 119.3125 -177.871094 111.75 -179.820312 C 108.578125 -180.554688 105.160156 -180.796875 101.5 -180.554688 C 97.839844 -180.308594 93.9375 -179.578125 90.03125 -178.847656 C 81.980469 -176.894531 73.929688 -173.964844 66.609375 -169.816406 C 53.679688 -162.742188 42.453125 -153.714844 32.9375 -142.492188 C 22.445312 -130.535156 13.90625 -117.117188 6.832031 -102.964844 C 4.390625 -98.328125 2.195312 -93.449219 0.976562 -88.324219 C 0 -84.421875 -0.488281 -80.515625 0.730469 -76.613281 C 1.21875 -74.417969 1.953125 -72.464844 3.660156 -71.246094 C 7.074219 -68.316406 10.734375 -66.121094 15.371094 -65.878906 C 17.8125 -65.878906 20.25 -65.632812 22.691406 -65.878906 C 27.816406 -66.367188 32.9375 -67.339844 38.0625 -68.804688 C 49.53125 -71.976562 60.996094 -75.148438 72.464844 -78.078125 C 81.003906 -80.515625 89.546875 -83.199219 98.574219 -83.933594 C 103.695312 -84.664062 108.578125 -84.175781 113.457031 -82.957031 C 115.894531 -82.226562 118.09375 -80.761719 119.800781 -78.808594 C 121.75 -76.371094 122.972656 -73.441406 123.214844 -70.269531 C 123.460938 -67.828125 123.214844 -65.632812 123.214844 -63.195312 C 123.214844 -61.242188 122.238281 -59.777344 120.289062 -59.046875 C 108.089844 -52.945312 96.863281 -45.382812 85.886719 -37.574219 C 78.566406 -32.207031 71.734375 -26.351562 66.121094 -19.273438 C 63.195312 -15.859375 60.753906 -12.199219 58.800781 -8.296875 C 57.582031 -5.855469 56.851562 -3.171875 57.09375 -0.488281 C 57.339844 2.441406 58.558594 4.878906 60.996094 6.585938 C 65.390625 9.515625 70.027344 10.246094 75.148438 9.027344 Z M 66.121094 6.832031 C 63.925781 7.074219 62.460938 6.101562 61.730469 4.148438 C 60.753906 1.707031 60.753906 -0.730469 61.484375 -3.171875 C 62.21875 -6.101562 63.925781 -8.785156 65.632812 -11.46875 C 70.027344 -18.054688 75.636719 -23.910156 81.738281 -29.035156 C 86.375 -33.183594 91.496094 -36.84375 96.863281 -40.503906 C 103.453125 -45.136719 110.527344 -49.53125 117.605469 -53.433594 C 118.578125 -53.921875 119.554688 -54.652344 121.019531 -54.652344 C 120.53125 -52.457031 119.554688 -50.507812 118.824219 -48.796875 C 114.433594 -38.550781 108.578125 -29.277344 101.988281 -20.25 C 97.839844 -14.394531 93.449219 -9.027344 88.082031 -4.148438 C 84.910156 -0.976562 81.25 1.707031 77.101562 3.902344 C 73.683594 5.613281 70.027344 6.832031 66.121094 6.832031 Z M 66.121094 6.832031 "/></g></g></g><g fill="#647c04" fill-opacity="1"><g transform="translate(181.785758, 260.414403)"><g><path d="M 34.160156 -59.777344 L 36.355469 -60.996094 C 38.792969 -62.707031 40.746094 -64.414062 42.941406 -66.367188 C 47.089844 -70.269531 50.996094 -74.660156 54.898438 -78.808594 C 56.117188 -79.785156 55.875 -80.273438 54.652344 -80.761719 C 53.679688 -81.25 52.945312 -81.003906 52.214844 -80.273438 C 51.480469 -79.542969 50.75 -78.808594 49.773438 -78.078125 C 47.335938 -75.394531 44.894531 -72.710938 42.210938 -70.027344 C 39.527344 -67.339844 36.597656 -64.902344 33.183594 -62.707031 C 31.964844 -61.972656 30.5 -61.242188 29.035156 -60.996094 C 28.304688 -60.753906 27.816406 -60.996094 27.570312 -61.730469 C 27.082031 -62.949219 27.082031 -64.167969 27.082031 -65.390625 C 26.839844 -69.78125 27.816406 -73.929688 29.035156 -78.078125 C 30.742188 -84.421875 32.9375 -90.277344 35.378906 -96.375 C 35.867188 -97.597656 36.355469 -98.816406 36.597656 -100.035156 C 36.84375 -101.011719 36.597656 -101.5 35.621094 -101.988281 C 34.160156 -102.964844 33.671875 -102.71875 32.449219 -101.5 C 32.207031 -101.257812 31.71875 -100.769531 31.476562 -100.28125 L 24.398438 -91.496094 C 22.691406 -89.546875 22.691406 -89.058594 20.007812 -90.277344 L 18.789062 -90.765625 C 16.835938 -91.253906 14.882812 -91.253906 13.417969 -90.03125 C 12.445312 -89.546875 11.46875 -88.8125 10.734375 -88.082031 C 6.101562 -83.445312 2.929688 -78.320312 0.730469 -72.222656 L 0 -68.804688 C 0 -68.316406 0.242188 -67.585938 0.730469 -67.097656 C 2.195312 -65.390625 4.636719 -65.390625 6.34375 -66.609375 C 7.074219 -67.097656 7.5625 -67.339844 8.050781 -67.828125 C 9.757812 -69.78125 11.710938 -71.734375 13.417969 -73.683594 L 26.839844 -90.03125 C 27.328125 -90.519531 27.570312 -91.496094 28.546875 -91.496094 C 29.035156 -90.519531 28.304688 -89.546875 28.058594 -88.570312 C 25.863281 -82.957031 24.15625 -77.34375 23.179688 -71.488281 C 22.933594 -68.5625 22.691406 -65.878906 23.421875 -63.195312 C 23.910156 -61.972656 24.398438 -60.996094 25.132812 -60.511719 C 28.058594 -58.558594 30.988281 -57.582031 34.160156 -59.777344 Z M 4.636719 -69.292969 C 4.148438 -70.027344 4.148438 -70.511719 4.390625 -71 C 6.585938 -76.613281 9.515625 -81.738281 13.417969 -86.375 C 14.394531 -87.347656 15.617188 -88.570312 17.078125 -89.058594 C 17.8125 -89.546875 18.789062 -89.789062 19.761719 -89.546875 C 21.226562 -89.058594 21.714844 -88.324219 20.738281 -87.105469 C 16.589844 -82.226562 12.445312 -77.101562 8.050781 -72.222656 C 7.074219 -71.246094 6.101562 -70.027344 4.636719 -69.292969 Z M 4.636719 -69.292969 "/></g></g></g><g fill="#647c04" fill-opacity="1"><g transform="translate(230.095011, 260.414403)"><g><path d="M 13.90625 -40.257812 C 18.300781 -38.0625 18.542969 -37.574219 22.203125 -40.746094 C 22.691406 -41.480469 23.421875 -41.964844 23.910156 -42.699219 C 26.105469 -45.136719 28.058594 -47.335938 30.011719 -49.773438 L 51.96875 -78.078125 C 52.457031 -78.566406 52.703125 -79.054688 52.945312 -79.542969 C 53.679688 -80.515625 53.679688 -81.003906 52.457031 -81.492188 C 51.238281 -81.980469 50.75 -81.980469 49.773438 -81.003906 L 48.308594 -79.296875 C 44.40625 -74.417969 38.792969 -67.339844 34.890625 -62.21875 C 30.742188 -57.09375 26.59375 -51.480469 21.960938 -46.601562 L 18.789062 -43.429688 C 18.300781 -43.1875 18.054688 -42.699219 17.566406 -43.1875 C 17.078125 -43.429688 17.078125 -43.917969 17.078125 -44.164062 C 17.324219 -46.359375 17.566406 -48.554688 18.054688 -50.507812 C 19.519531 -59.046875 22.203125 -67.339844 25.132812 -75.394531 C 26.59375 -79.054688 28.058594 -82.714844 29.277344 -86.375 C 30.5 -90.277344 29.277344 -90.277344 27.082031 -91.496094 C 26.351562 -91.984375 25.617188 -91.984375 24.886719 -91.496094 L 21.714844 -90.03125 C 18.789062 -88.570312 15.617188 -87.105469 12.445312 -85.640625 L 11.46875 -85.640625 C 11.222656 -85.886719 11.46875 -86.375 11.46875 -86.617188 C 12.199219 -88.324219 13.175781 -90.03125 13.90625 -91.742188 C 15.859375 -95.890625 17.8125 -100.28125 19.03125 -104.917969 C 19.519531 -106.867188 20.007812 -108.578125 20.25 -110.527344 C 20.25 -112.722656 19.519531 -114.675781 17.566406 -115.894531 C 15.617188 -117.117188 14.882812 -117.117188 12.929688 -115.652344 C 10.980469 -113.945312 9.757812 -111.75 8.296875 -109.550781 C 4.878906 -103.207031 2.441406 -96.621094 0.730469 -89.789062 L 0 -85.398438 C -0.242188 -83.6875 0.488281 -81.980469 2.195312 -81.003906 C 2.929688 -80.761719 3.414062 -80.515625 4.148438 -80.027344 C 6.832031 -78.566406 8.539062 -80.273438 9.757812 -80.761719 C 13.664062 -82.226562 17.324219 -84.175781 20.984375 -85.886719 C 21.960938 -86.375 22.933594 -87.105469 24.15625 -87.347656 C 24.398438 -86.128906 23.910156 -85.640625 23.667969 -85.152344 L 17.8125 -69.292969 C 15.617188 -62.949219 13.664062 -56.605469 12.6875 -50.019531 C 12.199219 -47.335938 12.199219 -44.894531 12.6875 -42.453125 C 12.929688 -41.480469 13.175781 -40.746094 13.90625 -40.257812 Z M 4.390625 -82.957031 C 3.660156 -83.445312 3.902344 -84.175781 3.902344 -84.664062 C 5.125 -92.960938 7.808594 -100.769531 11.710938 -108.089844 C 12.6875 -110.039062 13.90625 -111.75 15.371094 -113.210938 C 15.859375 -113.457031 16.101562 -113.945312 16.589844 -113.699219 C 17.078125 -113.457031 17.078125 -112.96875 17.078125 -112.722656 C 17.324219 -112.480469 17.078125 -112.234375 17.078125 -111.503906 C 17.078125 -109.550781 16.589844 -107.355469 15.859375 -105.160156 C 15.128906 -102.71875 14.394531 -100.28125 13.417969 -97.839844 C 11.710938 -93.691406 9.757812 -89.300781 7.808594 -85.152344 C 7.5625 -84.421875 7.074219 -83.445312 6.34375 -83.199219 C 5.613281 -82.957031 4.878906 -82.714844 4.390625 -82.957031 Z M 4.390625 -82.957031 "/></g></g></g><g fill="#647c04" fill-opacity="1"><g transform="translate(276.208415, 260.414403)"><g><path d="M 15.371094 -101.257812 C 15.859375 -101.257812 16.835938 -101.746094 17.078125 -102.964844 C 17.324219 -103.453125 17.324219 -103.941406 17.078125 -104.429688 C 16.589844 -105.40625 16.835938 -106.136719 17.566406 -106.867188 C 17.566406 -107.113281 17.566406 -107.355469 17.8125 -107.601562 C 17.566406 -107.84375 17.324219 -108.089844 17.078125 -108.089844 C 16.347656 -108.332031 15.617188 -108.089844 15.371094 -107.601562 C 14.394531 -106.378906 13.90625 -105.160156 13.417969 -103.695312 C 13.417969 -102.71875 14.152344 -101.746094 15.371094 -101.257812 Z M 13.175781 -59.535156 C 15.371094 -60.265625 17.566406 -61.484375 19.519531 -62.707031 C 27.570312 -67.585938 34.890625 -73.441406 42.210938 -79.542969 L 43.1875 -80.515625 C 43.429688 -80.761719 43.1875 -81.25 42.941406 -81.25 C 41.234375 -82.714844 40.746094 -82.714844 39.527344 -81.492188 C 39.039062 -81.25 38.550781 -80.761719 38.308594 -80.515625 C 32.695312 -76.125 27.328125 -71.734375 21.714844 -67.585938 C 18.789062 -65.632812 15.859375 -63.925781 12.929688 -62.21875 C 11.46875 -61.730469 10.003906 -60.996094 8.539062 -60.996094 C 7.5625 -60.996094 7.074219 -61.242188 6.585938 -62.21875 C 6.101562 -63.925781 6.101562 -65.632812 6.34375 -67.339844 C 7.074219 -74.171875 7.808594 -81.003906 11.710938 -87.105469 C 11.957031 -87.347656 11.710938 -87.835938 11.710938 -88.082031 C 11.222656 -88.8125 9.757812 -89.300781 9.273438 -88.570312 C 8.539062 -87.835938 8.050781 -87.105469 7.5625 -86.375 C 4.636719 -80.515625 2.929688 -74.171875 2.441406 -67.585938 L 2.929688 -64.167969 C 3.171875 -62.460938 3.902344 -61.242188 5.613281 -60.265625 C 8.050781 -59.046875 10.492188 -58.558594 13.175781 -59.535156 Z M 13.175781 -59.535156 "/></g></g></g><g fill="#647c04" fill-opacity="1"><g transform="translate(312.074381, 260.414403)"><g><path d="M 1.464844 -31.230469 C 1.953125 -31.230469 2.441406 -31.476562 2.929688 -31.964844 C 3.660156 -32.9375 4.390625 -33.914062 4.878906 -34.890625 L 9.273438 -43.1875 C 12.199219 -49.285156 15.128906 -55.386719 18.789062 -60.996094 C 20.738281 -64.167969 22.933594 -67.339844 25.375 -70.269531 C 26.351562 -71.246094 27.082031 -71.976562 28.304688 -72.710938 C 28.546875 -72.953125 29.035156 -72.710938 29.277344 -72.222656 C 29.523438 -71.734375 29.765625 -70.757812 29.765625 -70.027344 C 30.011719 -68.074219 30.011719 -65.878906 30.011719 -63.683594 C 30.011719 -61.730469 29.277344 -60.265625 28.058594 -58.800781 C 26.105469 -56.605469 24.15625 -54.410156 22.691406 -51.96875 C 20.984375 -49.285156 19.519531 -46.359375 18.789062 -43.429688 C 18.300781 -40.746094 18.789062 -39.769531 21.226562 -38.792969 C 22.445312 -38.308594 23.179688 -38.550781 23.910156 -39.28125 C 24.886719 -40.257812 25.617188 -40.992188 26.351562 -41.964844 C 29.765625 -46.601562 31.964844 -51.726562 32.9375 -57.582031 C 33.425781 -59.046875 33.914062 -60.265625 34.890625 -61.242188 C 37.332031 -63.683594 40.015625 -66.367188 42.699219 -68.5625 C 48.066406 -72.464844 53.191406 -76.371094 59.046875 -79.296875 C 59.777344 -79.542969 60.511719 -79.785156 60.996094 -80.761719 C 59.535156 -82.226562 58.070312 -82.46875 56.117188 -81.25 C 51.96875 -79.054688 47.824219 -76.855469 44.164062 -73.929688 C 40.992188 -71.488281 38.0625 -69.292969 35.136719 -66.609375 C 34.402344 -65.878906 33.914062 -66.121094 33.671875 -67.097656 C 33.671875 -68.074219 33.425781 -69.292969 33.183594 -70.269531 C 32.9375 -72.710938 31.476562 -73.929688 29.277344 -74.90625 C 27.570312 -75.636719 26.105469 -75.394531 24.886719 -74.171875 C 22.933594 -72.464844 21.472656 -70.511719 20.007812 -68.5625 C 17.324219 -64.902344 14.882812 -60.996094 12.929688 -57.09375 C 10.003906 -51.726562 7.320312 -46.113281 4.636719 -40.746094 C 3.414062 -38.792969 2.929688 -36.597656 0.976562 -35.378906 C 0.488281 -34.890625 0 -37.085938 0.488281 -41.964844 C 0.976562 -47.335938 1.953125 -52.703125 2.929688 -58.070312 C 3.414062 -60.511719 4.148438 -62.949219 5.367188 -65.144531 C 7.074219 -68.5625 8.785156 -71.976562 10.980469 -75.148438 C 20.25 -88.8125 28.792969 -102.964844 37.332031 -116.871094 C 43.429688 -126.386719 49.042969 -136.148438 54.167969 -146.394531 C 56.117188 -150.542969 57.824219 -154.445312 59.535156 -158.839844 C 60.265625 -161.035156 60.753906 -163.230469 60.996094 -165.671875 C 61.484375 -168.355469 60.511719 -170.304688 58.070312 -171.769531 L 57.582031 -171.769531 C 56.605469 -172.746094 55.140625 -172.746094 53.921875 -172.257812 C 51.96875 -171.527344 50.261719 -170.550781 48.796875 -169.332031 C 46.601562 -167.621094 44.894531 -165.671875 43.1875 -163.472656 C 39.28125 -158.839844 35.867188 -153.714844 32.695312 -148.589844 C 21.714844 -130.78125 13.175781 -111.992188 6.832031 -92.230469 C 2.441406 -78.078125 -1.21875 -63.683594 -2.929688 -48.796875 C -3.414062 -44.894531 -3.902344 -40.992188 -3.414062 -37.332031 C -3.171875 -36.109375 -3.171875 -35.136719 -2.683594 -33.914062 C -2.195312 -32.695312 0 -31.230469 1.464844 -31.230469 Z M 7.074219 -73.683594 C 6.585938 -74.660156 7.074219 -75.394531 7.320312 -76.371094 C 14.152344 -101.257812 23.910156 -124.921875 37.332031 -146.882812 C 40.503906 -152.25 44.164062 -157.617188 48.308594 -162.5 C 49.773438 -164.207031 51.238281 -165.914062 53.191406 -167.378906 C 54.167969 -168.355469 55.140625 -169.085938 56.363281 -169.574219 C 57.339844 -169.816406 57.824219 -169.332031 57.824219 -168.597656 C 57.824219 -167.378906 57.824219 -166.160156 57.582031 -164.9375 C 56.851562 -161.523438 55.628906 -158.351562 54.167969 -155.179688 C 50.75 -147.128906 46.601562 -139.074219 42.210938 -131.511719 C 32.9375 -114.921875 23.179688 -98.574219 12.929688 -82.46875 L 8.296875 -75.148438 C 8.050781 -74.660156 7.808594 -73.929688 7.074219 -73.683594 Z M 23.421875 -44.652344 C 23.421875 -46.847656 24.15625 -48.066406 26.351562 -50.507812 C 26.105469 -48.554688 25.375 -47.089844 23.421875 -44.652344 Z M 23.421875 -44.652344 "/></g></g></g></svg>